<svg width="12" height="12" viewBox="0 0 12 12" fill="none" xmlns="http://www.w3.org/2000/svg">
<path d="M4.68056 0.652976C5.00271 -0.217642 6.2341 -0.217643 6.55626 0.652976L7.48452 3.16155C7.5858 3.43527 7.80161 3.65108 8.07533 3.75236L10.5839 4.68062C11.4545 5.00277 11.4545 6.23416 10.5839 6.55632L8.07533 7.48458C7.80161 7.58586 7.5858 7.80167 7.48452 8.07539L6.55626 10.584C6.2341 11.4546 5.00271 11.4546 4.68056 10.584L3.7523 8.07539C3.65102 7.80167 3.43521 7.58586 3.16149 7.48458L0.652915 6.55632C-0.217703 6.23416 -0.217704 5.00278 0.652915 4.68062L3.16149 3.75236C3.43521 3.65108 3.65102 3.43527 3.7523 3.16155L4.68056 0.652976Z" fill="#52FFC4"/>
</svg>
