<svg width="96" height="44" viewBox="0 0 96 44" fill="none" xmlns="http://www.w3.org/2000/svg">
<path d="M0 9.61775L7.45762 9.61924L11.9924 9.62001V5.12305L0 9.61775Z" fill="#FF9D28"/>
<path d="M11.9949 5.12346V21L17.6587 3L11.9949 5.12346Z" fill="#68C5ED"/>
<path d="M11.9947 9.6204L7.45996 9.61963L11.9947 21V9.6204Z" fill="#044D80"/>
<path d="M0 9.61816L8.6205 12.5397L7.45762 9.61966L0 9.61816Z" fill="#E54747"/>
<path d="M27.4754 16.8207C27.4096 16.8865 27.3001 16.9686 27.1469 17.0673C26.9934 17.166 26.7937 17.2646 26.5473 17.3634C26.3009 17.4619 25.9996 17.5467 25.6439 17.6182C25.2878 17.6893 24.8801 17.725 24.4201 17.725C23.533 17.725 22.7664 17.5824 22.1204 17.2976C21.4741 17.0128 20.9403 16.6151 20.5188 16.1055C20.0972 15.5958 19.7879 14.993 19.5908 14.2968C19.3937 13.6007 19.2952 12.8362 19.2952 12.0031C19.2952 11.1702 19.4019 10.4 19.6155 9.69295C19.829 8.98588 20.1493 8.37502 20.5763 7.85957C21.0034 7.34452 21.5373 6.94161 22.178 6.65103C22.8186 6.36079 23.5713 6.21533 24.4365 6.21533C24.8636 6.21533 25.2496 6.25382 25.5946 6.33042C25.9396 6.40717 26.2406 6.49768 26.4981 6.60172C26.7552 6.70604 26.9688 6.81543 27.1387 6.93057C27.3083 7.04565 27.437 7.14179 27.5248 7.21828C27.6233 7.30619 27.708 7.41023 27.7794 7.53067C27.8505 7.65144 27.8861 7.78298 27.8861 7.92534C27.8861 8.14474 27.804 8.36386 27.6397 8.58304C27.4755 8.80244 27.2948 9.00521 27.0976 9.19142C26.9662 9.05988 26.8184 8.9258 26.6541 8.78863C26.4899 8.65162 26.3064 8.53118 26.1039 8.42687C25.9011 8.32283 25.6711 8.23519 25.4139 8.16379C25.1565 8.09261 24.8691 8.05688 24.5516 8.05688C23.9931 8.05688 23.525 8.16942 23.1471 8.39396C22.7694 8.61877 22.4654 8.91189 22.2355 9.27365C22.0056 9.63541 21.8413 10.0492 21.7427 10.515C21.6442 10.9811 21.5949 11.4551 21.5949 11.9373C21.5949 12.4527 21.6442 12.9459 21.7427 13.4171C21.8412 13.8885 22.0108 14.3051 22.2519 14.6667C22.4926 15.0284 22.8076 15.319 23.1964 15.5381C23.585 15.7576 24.0695 15.867 24.6501 15.867C24.9565 15.867 25.2387 15.8287 25.4961 15.752C25.7532 15.6753 25.9806 15.5821 26.1777 15.4723C26.3748 15.3629 26.5473 15.2479 26.6951 15.1272C26.843 15.0066 26.9662 14.9026 27.0648 14.8147C27.1305 14.8916 27.2069 14.9848 27.2947 15.0943C27.3829 15.2049 27.4652 15.3202 27.5411 15.4396C27.6176 15.5603 27.6833 15.6808 27.7382 15.8012C27.7929 15.922 27.8203 16.0315 27.8203 16.13C27.8203 16.2727 27.7929 16.3932 27.7382 16.4918C27.6832 16.5905 27.5957 16.7002 27.4754 16.8207ZM35.9405 15.5596C35.9405 16.4309 36.067 17.065 36.3205 17.462C36.1223 17.539 35.9377 17.5942 35.7669 17.6273C35.596 17.6605 35.4171 17.6769 35.2299 17.6769C34.8333 17.6769 34.533 17.5997 34.3293 17.4454C34.1253 17.2911 33.9959 17.0706 33.941 16.7837C33.6985 17.0376 33.379 17.2525 32.9825 17.429C32.5859 17.6051 32.101 17.6936 31.5283 17.6936C31.2308 17.6936 30.9334 17.6523 30.6359 17.5701C30.3384 17.4873 30.0684 17.3529 29.8261 17.1662C29.5837 16.9792 29.3854 16.7291 29.2313 16.4158C29.0768 16.1024 28.9999 15.7205 28.9999 15.2699C28.9999 14.7093 29.1347 14.2529 29.4048 13.9013C29.6746 13.5494 30.0134 13.2719 30.4211 13.0685C30.8286 12.8652 31.2693 12.7254 31.7432 12.6482C32.2167 12.5712 32.652 12.5219 33.0486 12.4996C33.1809 12.4887 33.3102 12.483 33.437 12.483H33.7922V12.182C33.7922 11.7581 33.6791 11.457 33.4535 11.2787C33.2275 11.1003 32.8611 11.0109 32.3545 11.0109C31.8807 11.0109 31.4593 11.0881 31.0904 11.2424C30.7211 11.397 30.3604 11.5733 30.008 11.7718C29.8535 11.5844 29.7295 11.3777 29.6361 11.1515C29.5425 10.9256 29.4957 10.7574 29.4957 10.647C29.4957 10.4927 29.5809 10.3438 29.7518 10.2003C29.9225 10.0572 30.1567 9.92742 30.4542 9.81162C30.7517 9.69582 31.093 9.60227 31.4788 9.53043C31.8642 9.45881 32.2719 9.42291 32.7016 9.42291C33.2965 9.42291 33.8005 9.48366 34.2136 9.60487C34.6268 9.72636 34.9627 9.91373 35.2217 10.1673C35.4804 10.4211 35.665 10.738 35.7752 11.1184C35.8852 11.4989 35.9405 11.9429 35.9405 12.45L35.9405 15.5596ZM33.8252 13.6409H33.5939C33.5166 13.6409 33.4394 13.6466 33.3625 13.6575C33.087 13.6797 32.8143 13.7127 32.5446 13.7566C32.2745 13.8009 32.0348 13.8781 31.8257 13.9883C31.6163 14.0986 31.4456 14.2421 31.3134 14.4183C31.1812 14.5949 31.1151 14.821 31.1151 15.0966C31.1151 15.4054 31.2032 15.6672 31.3795 15.8822C31.5556 16.0973 31.853 16.2049 32.2719 16.2049C32.481 16.2049 32.6794 16.1775 32.8668 16.122C33.054 16.0671 33.2192 15.9954 33.3625 15.9072C33.5056 15.8189 33.6187 15.7225 33.7013 15.6176C33.7839 15.5129 33.8252 15.4165 33.8252 15.3282L33.8252 13.6409ZM40.055 10.3822C40.2306 10.1729 40.5053 9.96044 40.8786 9.74535C41.252 9.53032 41.7243 9.4228 42.2954 9.4228C42.7019 9.4228 43.0889 9.49177 43.457 9.62955C43.8246 9.76755 44.1515 9.99093 44.437 10.2995C44.7226 10.6084 44.9505 11.0165 45.1208 11.5236C45.291 12.0309 45.3762 12.6541 45.3762 13.3927C45.3762 14.2529 45.2772 14.9616 45.0796 15.5183C44.8818 16.0754 44.6266 16.5165 44.3138 16.8417C44.0007 17.167 43.6519 17.3959 43.2677 17.5281C42.8832 17.6605 42.4988 17.7267 42.1145 17.7267C41.796 17.7267 41.5185 17.6908 41.2826 17.6192C41.0464 17.5474 40.846 17.4677 40.6813 17.3793C40.5165 17.2912 40.3903 17.2031 40.3025 17.1146C40.2147 17.0265 40.1597 16.9657 40.1378 16.9326V20.9989H37.8903V9.65435C37.9456 9.64352 38.0122 9.63242 38.0901 9.62133C38.1568 9.6105 38.2345 9.60216 38.3233 9.59647C38.4121 9.59106 38.5176 9.58825 38.6396 9.58825C39.0058 9.58825 39.3166 9.64899 39.5719 9.7702C39.8272 9.89169 39.9884 10.0956 40.055 10.3822ZM43.0296 13.4423C43.0296 13.1115 43.0022 12.803 42.9474 12.5161C42.8927 12.2295 42.8023 11.9813 42.6763 11.7717C42.5503 11.5623 42.3804 11.3995 42.1669 11.2837C41.953 11.1679 41.6931 11.1101 41.3865 11.1101C40.9265 11.1101 40.6061 11.1985 40.4252 11.3747C40.2445 11.5512 40.1542 11.7443 40.1542 11.9537V15.4605C40.2417 15.5489 40.3976 15.6535 40.6222 15.7748C40.8469 15.8962 41.1069 15.9566 41.4028 15.9566C41.9615 15.9566 42.3723 15.7363 42.6352 15.2951C42.8982 14.8541 43.0296 14.2364 43.0296 13.4423ZM47.1108 16.2876C47.0335 16.0671 46.984 15.8354 46.962 15.5928C46.9399 15.3503 46.929 15.1078 46.929 14.8648V7.18967C47.006 7.17885 47.0886 7.16775 47.1769 7.15659C47.2537 7.14577 47.3364 7.13754 47.4247 7.1318C47.5128 7.12639 47.6008 7.12357 47.689 7.12357C47.8652 7.12357 48.0416 7.14014 48.2179 7.17316C48.394 7.20629 48.5538 7.27245 48.6972 7.37163C48.8403 7.47086 48.9559 7.6061 49.0442 7.7769C49.1323 7.94798 49.1764 8.17136 49.1764 8.4468V9.62121H51.49V11.292H49.1764V14.8194C49.1764 15.5887 49.4903 15.9732 50.1184 15.9732C50.2725 15.9732 50.4184 15.9485 50.5563 15.8988C50.6939 15.8492 50.8178 15.7941 50.9281 15.7334C51.0382 15.6728 51.1346 15.6094 51.2173 15.5432C51.2999 15.477 51.3577 15.4274 51.3907 15.3944C51.556 15.6371 51.6825 15.8472 51.7708 16.0246C51.8589 16.2021 51.903 16.3687 51.903 16.5244C51.903 16.6692 51.8453 16.8113 51.7295 16.9503C51.6137 17.0893 51.4511 17.2176 51.2419 17.3344C51.0326 17.4512 50.7794 17.5458 50.4819 17.6182C50.1844 17.6906 49.8593 17.7268 49.5069 17.7268C48.8236 17.7268 48.2922 17.5944 47.9121 17.3298C47.5321 17.065 47.2648 16.7176 47.1108 16.2876ZM57.182 16.0725C57.4583 16.0725 57.7015 16.0423 57.9117 15.9815C58.1216 15.9211 58.3095 15.8466 58.4754 15.7583C58.6412 15.6702 58.785 15.5737 58.9067 15.4689C59.0282 15.3642 59.1387 15.2677 59.2385 15.1793C59.3709 15.3446 59.5091 15.5571 59.6529 15.816C59.7965 16.0754 59.8685 16.2876 59.8685 16.4529C59.8685 16.6956 59.7306 16.9162 59.4554 17.1146C59.2241 17.2912 58.896 17.4428 58.4722 17.5695C58.0479 17.6962 57.5493 17.7597 56.9766 17.7597C56.4586 17.7597 55.9491 17.6936 55.448 17.5612C54.9467 17.429 54.5004 17.1973 54.1095 16.8664C53.7183 16.5357 53.4015 16.0919 53.1592 15.535C52.9168 14.9781 52.7957 14.2752 52.7957 13.4259C52.7957 12.7311 52.9032 12.133 53.1178 11.6311C53.3328 11.1294 53.6191 10.7131 53.9774 10.3823C54.3351 10.0515 54.74 9.80903 55.1918 9.6544C55.6435 9.50017 56.1063 9.42286 56.58 9.42286C57.1969 9.42286 57.7202 9.51955 58.1498 9.71233C58.5796 9.90539 58.9291 10.1646 59.1992 10.4898C59.469 10.8151 59.6645 11.1873 59.7858 11.6063C59.9069 12.0255 59.9676 12.4665 59.9676 12.9296V13.1612C59.9676 13.2496 59.9648 13.3431 59.9593 13.4424C59.9537 13.5417 59.9483 13.6384 59.9429 13.7318C59.9372 13.8258 59.9289 13.9001 59.9182 13.9552H55.0431C55.0873 14.5618 55.2752 15.0662 55.6068 15.4689C55.9382 15.8715 56.4634 16.0725 57.182 16.0725ZM57.935 12.7145C57.935 12.1852 57.8324 11.7552 57.6274 11.4243C57.4224 11.0935 57.0539 10.928 56.5223 10.928C56.0678 10.928 55.705 11.0853 55.4337 11.3995C55.162 11.7139 55.0266 12.1522 55.0266 12.7145L57.935 12.7145ZM63.8787 10.424C63.9446 10.3256 64.0327 10.2163 64.143 10.0958C64.253 9.97541 64.3881 9.86601 64.5479 9.76761C64.7075 9.66915 64.8838 9.58692 65.0767 9.52132C65.2693 9.45566 65.4759 9.42286 65.6965 9.42286C65.8286 9.42286 65.9691 9.43396 66.1178 9.45566C66.2665 9.47764 66.4041 9.51872 66.5309 9.57869C66.6575 9.63894 66.7595 9.72083 66.8367 9.82476C66.9136 9.92869 66.9523 10.0571 66.9523 10.2102C66.9523 10.4508 66.8916 10.7271 66.7706 11.039C66.6492 11.3513 66.5282 11.6175 66.4071 11.8379C66.2195 11.6836 66.0323 11.565 65.8451 11.4823C65.6577 11.3996 65.4374 11.3582 65.1841 11.3582C64.8426 11.3582 64.5562 11.4578 64.3249 11.6568C64.0934 11.8558 63.9777 12.0936 63.9777 12.3701V17.7249H61.7304V9.65435C61.7854 9.64352 61.8515 9.63242 61.9287 9.62133C61.9947 9.6105 62.0718 9.60216 62.16 9.59647C62.2481 9.59106 62.3527 9.58825 62.474 9.58825C62.8265 9.58825 63.1321 9.65667 63.3911 9.79323C63.6498 9.92963 63.8126 10.14 63.8787 10.424ZM70.2684 10.424C70.3344 10.3256 70.4225 10.2163 70.5328 10.0958C70.6428 9.97541 70.7778 9.86601 70.9376 9.76761C71.0972 9.66915 71.2735 9.58692 71.4664 9.52132C71.6591 9.45566 71.8656 9.42286 72.0861 9.42286C72.2183 9.42286 72.3587 9.43396 72.5074 9.45566C72.6561 9.47764 72.7938 9.51872 72.9206 9.57869C73.0472 9.63894 73.149 9.72083 73.2264 9.82476C73.3033 9.92869 73.3421 10.0571 73.3421 10.2102C73.3421 10.4508 73.2813 10.7271 73.1603 11.039C73.0388 11.3513 72.9178 11.6175 72.7967 11.8379C72.6093 11.6836 72.4219 11.565 72.2348 11.4823C72.0475 11.3996 71.8271 11.3582 71.5738 11.3582C71.2323 11.3582 70.9459 11.4578 70.7146 11.6568C70.4832 11.8558 70.3675 12.0936 70.3675 12.3701V17.7249H68.1201V9.65435C68.1751 9.64352 68.2412 9.63242 68.3185 9.62133C68.3845 9.6105 68.4616 9.60216 68.5498 9.59647C68.6378 9.59106 68.7424 9.58825 68.8637 9.58825C69.2163 9.58825 69.5219 9.65667 69.7808 9.79323C70.0395 9.92963 70.2022 10.14 70.2684 10.424ZM80.9933 15.5596C80.9933 16.4309 81.1199 17.065 81.3734 17.462C81.1751 17.539 80.9905 17.5942 80.8198 17.6273C80.6489 17.6605 80.47 17.6769 80.2828 17.6769C79.8861 17.6769 79.5858 17.5997 79.3822 17.4454C79.1781 17.2911 79.0488 17.0706 78.9937 16.7837C78.7514 17.0376 78.4319 17.2525 78.0353 17.429C77.6388 17.6051 77.1538 17.6936 76.5811 17.6936C76.2836 17.6936 75.9863 17.6523 75.6887 17.5701C75.3913 17.4873 75.1211 17.3529 74.879 17.1662C74.6365 16.9792 74.4383 16.7291 74.2841 16.4158C74.1297 16.1024 74.0528 15.7205 74.0528 15.2699C74.0528 14.7093 74.1875 14.2529 74.4577 13.9013C74.7274 13.5494 75.0663 13.2719 75.474 13.0685C75.8814 12.8652 76.3221 12.7254 76.796 12.6482C77.2695 12.5712 77.7049 12.5219 78.1015 12.4996C78.2337 12.4887 78.363 12.483 78.4899 12.483H78.8451V12.182C78.8451 11.7581 78.732 11.457 78.5063 11.2787C78.2802 11.1003 77.914 11.0109 77.4073 11.0109C76.9336 11.0109 76.5122 11.0881 76.1432 11.2424C75.774 11.397 75.4133 11.5733 75.0608 11.7718C74.9065 11.5844 74.7823 11.3777 74.6889 11.1515C74.5953 10.9256 74.5485 10.7574 74.5485 10.647C74.5485 10.4927 74.6337 10.3438 74.8047 10.2003C74.9754 10.0572 75.2096 9.92742 75.507 9.81162C75.8045 9.69582 76.1458 9.60227 76.5315 9.53043C76.9171 9.45881 77.3247 9.42291 77.7544 9.42291C78.3493 9.42291 78.8533 9.48366 79.2665 9.60487C79.6795 9.72636 80.0155 9.91373 80.2745 10.1673C80.5332 10.4211 80.7177 10.738 80.8281 11.1184C80.938 11.4989 80.9933 11.9429 80.9933 12.45V15.5596ZM78.878 13.6409H78.6467C78.5695 13.6409 78.4923 13.6466 78.4154 13.6575C78.14 13.6797 77.8671 13.7127 77.5974 13.7566C77.3273 13.8009 77.0877 13.8781 76.8785 13.9883C76.6692 14.0986 76.4984 14.2421 76.3663 14.4183C76.2341 14.5949 76.1679 14.821 76.1679 15.0966C76.1679 15.4054 76.256 15.6672 76.4324 15.8822C76.6085 16.0973 76.906 16.2049 77.3247 16.2049C77.5339 16.2049 77.7323 16.1775 77.9197 16.122C78.1069 16.0671 78.2721 15.9954 78.4154 15.9072C78.5583 15.8189 78.6716 15.7225 78.7541 15.6176C78.8368 15.5129 78.8781 15.4165 78.8781 15.3282L78.878 13.6409Z" fill="white"/>
<path d="M5.49542 32.8933L1.24209 33.5099L1.16675 33.5253C1.05271 33.5556 0.948751 33.6156 0.865483 33.6991C0.782214 33.7827 0.722624 33.8869 0.692796 34.0011C0.662969 34.1153 0.663973 34.2353 0.695706 34.3489C0.72744 34.4626 0.788766 34.5658 0.873421 34.6479L3.95475 37.6473L3.22809 41.8839L3.21942 41.9573C3.21244 42.0752 3.23693 42.1929 3.29039 42.2983C3.34384 42.4037 3.42434 42.4929 3.52365 42.557C3.62295 42.621 3.73748 42.6575 3.85552 42.6627C3.97356 42.6679 4.09086 42.6416 4.19542 42.5866L7.99942 40.5866L11.7948 42.5866L11.8614 42.6173C11.9715 42.6606 12.0911 42.6739 12.2079 42.6558C12.3248 42.6377 12.4347 42.5888 12.5265 42.5141C12.6182 42.4395 12.6885 42.3418 12.73 42.231C12.7715 42.1203 12.7828 42.0005 12.7628 41.8839L12.0354 37.6473L15.1181 34.6473L15.1701 34.5906C15.2444 34.4991 15.2931 34.3896 15.3112 34.2731C15.3294 34.1567 15.3164 34.0375 15.2735 33.9278C15.2306 33.818 15.1594 33.7216 15.0671 33.6483C14.9748 33.575 14.8647 33.5275 14.7481 33.5106L10.4948 32.8933L8.59342 29.0399C8.53841 28.9283 8.45323 28.8343 8.34755 28.7686C8.24186 28.7028 8.11989 28.668 7.99542 28.668C7.87096 28.668 7.74898 28.7028 7.6433 28.7686C7.53761 28.8343 7.45244 28.9283 7.39742 29.0399L5.49542 32.8933Z" fill="#FFAA00"/>
<path d="M25.4954 32.8933L21.2421 33.5099L21.1668 33.5253C21.0527 33.5556 20.9488 33.6156 20.8655 33.6991C20.7822 33.7827 20.7226 33.8869 20.6928 34.0011C20.663 34.1153 20.664 34.2353 20.6957 34.3489C20.7274 34.4626 20.7888 34.5658 20.8734 34.6479L23.9548 37.6473L23.2281 41.8839L23.2194 41.9573C23.2124 42.0752 23.2369 42.1929 23.2904 42.2983C23.3438 42.4037 23.4243 42.4929 23.5236 42.557C23.6229 42.621 23.7375 42.6575 23.8555 42.6627C23.9736 42.6679 24.0909 42.6416 24.1954 42.5866L27.9994 40.5866L31.7948 42.5866L31.8614 42.6173C31.9715 42.6606 32.0911 42.6739 32.2079 42.6558C32.3248 42.6377 32.4347 42.5888 32.5265 42.5141C32.6182 42.4395 32.6885 42.3418 32.73 42.231C32.7715 42.1203 32.7828 42.0005 32.7628 41.8839L32.0354 37.6473L35.1181 34.6473L35.1701 34.5906C35.2444 34.4991 35.2931 34.3896 35.3112 34.2731C35.3294 34.1567 35.3164 34.0375 35.2735 33.9278C35.2306 33.818 35.1594 33.7216 35.0671 33.6483C34.9748 33.575 34.8647 33.5275 34.7481 33.5106L30.4948 32.8933L28.5934 29.0399C28.5384 28.9283 28.4532 28.8343 28.3475 28.7686C28.2419 28.7028 28.1199 28.668 27.9954 28.668C27.871 28.668 27.749 28.7028 27.6433 28.7686C27.5376 28.8343 27.4524 28.9283 27.3974 29.0399L25.4954 32.8933Z" fill="#FFAA00"/>
<path d="M45.4954 32.8933L41.2421 33.5099L41.1668 33.5253C41.0527 33.5556 40.9488 33.6156 40.8655 33.6991C40.7822 33.7827 40.7226 33.8869 40.6928 34.0011C40.663 34.1153 40.664 34.2353 40.6957 34.3489C40.7274 34.4626 40.7888 34.5658 40.8734 34.6479L43.9548 37.6473L43.2281 41.8839L43.2194 41.9573C43.2124 42.0752 43.2369 42.1929 43.2904 42.2983C43.3438 42.4037 43.4243 42.4929 43.5236 42.557C43.6229 42.621 43.7375 42.6575 43.8555 42.6627C43.9736 42.6679 44.0909 42.6416 44.1954 42.5866L47.9994 40.5866L51.7948 42.5866L51.8614 42.6173C51.9715 42.6606 52.0911 42.6739 52.2079 42.6558C52.3248 42.6377 52.4347 42.5888 52.5265 42.5141C52.6182 42.4395 52.6885 42.3418 52.73 42.231C52.7715 42.1203 52.7828 42.0005 52.7628 41.8839L52.0354 37.6473L55.1181 34.6473L55.1701 34.5906C55.2444 34.4991 55.2931 34.3896 55.3112 34.2731C55.3294 34.1567 55.3164 34.0375 55.2735 33.9278C55.2306 33.818 55.1594 33.7216 55.0671 33.6483C54.9748 33.575 54.8647 33.5275 54.7481 33.5106L50.4948 32.8933L48.5934 29.0399C48.5384 28.9283 48.4532 28.8343 48.3475 28.7686C48.2419 28.7028 48.1199 28.668 47.9954 28.668C47.871 28.668 47.749 28.7028 47.6433 28.7686C47.5376 28.8343 47.4524 28.9283 47.3974 29.0399L45.4954 32.8933Z" fill="#FFAA00"/>
<path d="M65.4954 32.8933L61.2421 33.5099L61.1668 33.5253C61.0527 33.5556 60.9488 33.6156 60.8655 33.6991C60.7822 33.7827 60.7226 33.8869 60.6928 34.0011C60.663 34.1153 60.664 34.2353 60.6957 34.3489C60.7274 34.4626 60.7888 34.5658 60.8734 34.6479L63.9548 37.6473L63.2281 41.8839L63.2194 41.9573C63.2124 42.0752 63.2369 42.1929 63.2904 42.2983C63.3438 42.4037 63.4243 42.4929 63.5236 42.557C63.6229 42.621 63.7375 42.6575 63.8555 42.6627C63.9736 42.6679 64.0909 42.6416 64.1954 42.5866L67.9994 40.5866L71.7948 42.5866L71.8614 42.6173C71.9715 42.6606 72.0911 42.6739 72.2079 42.6558C72.3248 42.6377 72.4347 42.5888 72.5265 42.5141C72.6182 42.4395 72.6885 42.3418 72.73 42.231C72.7715 42.1203 72.7828 42.0005 72.7628 41.8839L72.0354 37.6473L75.1181 34.6473L75.1701 34.5906C75.2444 34.4991 75.2931 34.3896 75.3112 34.2731C75.3294 34.1567 75.3164 34.0375 75.2735 33.9278C75.2306 33.818 75.1594 33.7216 75.0671 33.6483C74.9748 33.575 74.8647 33.5275 74.7481 33.5106L70.4948 32.8933L68.5934 29.0399C68.5384 28.9283 68.4532 28.8343 68.3475 28.7686C68.2419 28.7028 68.1199 28.668 67.9954 28.668C67.871 28.668 67.749 28.7028 67.6433 28.7686C67.5376 28.8343 67.4524 28.9283 67.3974 29.0399L65.4954 32.8933Z" fill="#FFAA00"/>
<path d="M85.4954 32.8933L81.2421 33.5099L81.1668 33.5253C81.0527 33.5556 80.9488 33.6156 80.8655 33.6991C80.7822 33.7827 80.7226 33.8869 80.6928 34.0011C80.663 34.1153 80.664 34.2353 80.6957 34.3489C80.7274 34.4626 80.7888 34.5658 80.8734 34.6479L83.9548 37.6473L83.2281 41.8839L83.2194 41.9573C83.2124 42.0752 83.2369 42.1929 83.2904 42.2983C83.3438 42.4037 83.4243 42.4929 83.5236 42.557C83.6229 42.621 83.7375 42.6575 83.8555 42.6627C83.9736 42.6679 84.0909 42.6416 84.1954 42.5866L87.9994 40.5866L91.7948 42.5866L91.8614 42.6173C91.9715 42.6606 92.0911 42.6739 92.2079 42.6558C92.3248 42.6377 92.4347 42.5888 92.5265 42.5141C92.6182 42.4395 92.6885 42.3418 92.73 42.231C92.7715 42.1203 92.7828 42.0005 92.7628 41.8839L92.0354 37.6473L95.1181 34.6473L95.1701 34.5906C95.2444 34.4991 95.2931 34.3896 95.3112 34.2731C95.3294 34.1567 95.3164 34.0375 95.2735 33.9278C95.2306 33.818 95.1594 33.7216 95.0671 33.6483C94.9748 33.575 94.8647 33.5275 94.7481 33.5106L90.4948 32.8933L88.5934 29.0399C88.5384 28.9283 88.4532 28.8343 88.3475 28.7686C88.2419 28.7028 88.1199 28.668 87.9954 28.668C87.871 28.668 87.749 28.7028 87.6433 28.7686C87.5376 28.8343 87.4524 28.9283 87.3974 29.0399L85.4954 32.8933Z" fill="#FFAA00"/>
</svg>
