<svg width="52" height="52" viewBox="0 0 52 52" fill="none" xmlns="http://www.w3.org/2000/svg">
<rect width="52" height="52" rx="16" fill="url(#paint0_linear_1_1410)"/>
<g filter="url(#filter0_d_1_1410)">
<rect x="8" y="8" width="36" height="36" rx="12" fill="white" shape-rendering="crispEdges"/>
<path d="M30.1668 24.3333L28.5002 19.3333M21.8335 24.3333L23.5002 19.3333M25.167 32.6666H22.037C21.4398 32.6666 20.8624 32.4528 20.4092 32.0639C19.956 31.6751 19.6569 31.1368 19.5662 30.5466L18.5203 24.5866C18.4838 24.3491 18.4991 24.1065 18.5651 23.8754C18.6311 23.6443 18.7463 23.4303 18.9028 23.2479C19.0593 23.0656 19.2534 22.9192 19.4717 22.8188C19.6901 22.7185 19.9275 22.6666 20.1678 22.6666H31.8337C32.074 22.6666 32.3115 22.7185 32.5298 22.8188C32.7482 22.9192 32.9422 23.0656 33.0987 23.2479C33.2552 23.4303 33.3704 23.6443 33.4364 23.8754C33.5024 24.1065 33.5177 24.3491 33.4812 24.5866L33.082 26.8608M28.5002 31.8333L30.1668 33.4999L33.5002 30.1666M24.3335 27.6666C24.3335 28.1086 24.5091 28.5325 24.8217 28.8451C25.1342 29.1577 25.5581 29.3333 26.0002 29.3333C26.4422 29.3333 26.8661 29.1577 27.1787 28.8451C27.4912 28.5325 27.6668 28.1086 27.6668 27.6666C27.6668 27.2246 27.4912 26.8006 27.1787 26.4881C26.8661 26.1755 26.4422 25.9999 26.0002 25.9999C25.5581 25.9999 25.1342 26.1755 24.8217 26.4881C24.5091 26.8006 24.3335 27.2246 24.3335 27.6666Z" stroke="#001414" stroke-width="1.66667" stroke-linecap="round" stroke-linejoin="round"/>
</g>
<defs>
<filter id="filter0_d_1_1410" x="4" y="8" width="44" height="44" filterUnits="userSpaceOnUse" color-interpolation-filters="sRGB">
<feFlood flood-opacity="0" result="BackgroundImageFix"/>
<feColorMatrix in="SourceAlpha" type="matrix" values="0 0 0 0 0 0 0 0 0 0 0 0 0 0 0 0 0 0 127 0" result="hardAlpha"/>
<feOffset dy="4"/>
<feGaussianBlur stdDeviation="2"/>
<feComposite in2="hardAlpha" operator="out"/>
<feColorMatrix type="matrix" values="0 0 0 0 0 0 0 0 0 0 0 0 0 0 0 0 0 0 0.25 0"/>
<feBlend mode="normal" in2="BackgroundImageFix" result="effect1_dropShadow_1_1410"/>
<feBlend mode="normal" in="SourceGraphic" in2="effect1_dropShadow_1_1410" result="shape"/>
</filter>
<linearGradient id="paint0_linear_1_1410" x1="0" y1="0" x2="52" y2="52" gradientUnits="userSpaceOnUse">
<stop stop-color="#E2001A"/>
<stop offset="1" stop-color="white"/>
</linearGradient>
</defs>
</svg>
