<svg width="52" height="52" viewBox="0 0 52 52" fill="none" xmlns="http://www.w3.org/2000/svg">
<rect width="52" height="52" rx="16" fill="url(#paint0_linear_1_1402)"/>
<g filter="url(#filter0_d_1_1402)">
<rect x="8" y="8" width="36" height="36" rx="12" fill="white" shape-rendering="crispEdges"/>
<path d="M32.6666 25.1667C32.4628 23.7002 31.7825 22.3414 30.7305 21.2996C29.6785 20.2578 28.3131 19.5908 26.8447 19.4013C25.3763 19.2119 23.8863 19.5104 22.6043 20.2511C21.3223 20.9917 20.3194 22.1333 19.75 23.5M19.3333 20.1667V23.5H22.6666M19.3333 26.8334C19.5371 28.2999 20.2174 29.6587 21.2694 30.7005C22.3215 31.7423 23.6868 32.4093 25.1553 32.5987C26.6237 32.7882 28.1136 32.4896 29.3956 31.749C30.6777 31.0084 31.6806 29.8668 32.25 28.5M32.6666 31.8334V28.5H29.3333" stroke="#001414" stroke-width="1.66667" stroke-linecap="round" stroke-linejoin="round"/>
</g>
<defs>
<filter id="filter0_d_1_1402" x="4" y="8" width="44" height="44" filterUnits="userSpaceOnUse" color-interpolation-filters="sRGB">
<feFlood flood-opacity="0" result="BackgroundImageFix"/>
<feColorMatrix in="SourceAlpha" type="matrix" values="0 0 0 0 0 0 0 0 0 0 0 0 0 0 0 0 0 0 127 0" result="hardAlpha"/>
<feOffset dy="4"/>
<feGaussianBlur stdDeviation="2"/>
<feComposite in2="hardAlpha" operator="out"/>
<feColorMatrix type="matrix" values="0 0 0 0 0 0 0 0 0 0 0 0 0 0 0 0 0 0 0.25 0"/>
<feBlend mode="normal" in2="BackgroundImageFix" result="effect1_dropShadow_1_1402"/>
<feBlend mode="normal" in="SourceGraphic" in2="effect1_dropShadow_1_1402" result="shape"/>
</filter>
<linearGradient id="paint0_linear_1_1402" x1="0" y1="0" x2="52" y2="52" gradientUnits="userSpaceOnUse">
<stop stop-color="#4285F4"/>
<stop offset="1" stop-color="#EA4335"/>
</linearGradient>
</defs>
</svg>
