<svg width="96" height="48" viewBox="0 0 96 48" fill="none" xmlns="http://www.w3.org/2000/svg">
<path d="M8.69826 20.9992C4.85608 20.9889 1.5083 18.5618 0.416221 14.9417C-0.495864 11.9084 0.0954629 9.13578 2.14693 6.71278C3.40805 5.22379 5.03434 4.31113 6.9462 3.92057C8.01566 3.70245 9.11724 3.69344 10.1901 3.89403C10.3101 3.91595 10.3113 3.94826 10.2646 4.04518C9.73688 5.1436 9.2117 6.24357 8.68903 7.34507C8.67607 7.37951 8.65205 7.40868 8.62072 7.428C8.5894 7.44732 8.55255 7.45569 8.51595 7.4518C7.41665 7.4799 6.35833 7.87485 5.50937 8.57379C4.66041 9.27274 4.06959 10.2355 3.83092 11.309C3.3042 13.6552 4.57339 16.0823 6.81293 16.9424C8.59038 17.6249 10.2444 17.3532 11.7489 16.1867C11.8257 16.129 11.8574 16.1175 11.9122 16.2127C12.4891 17.2222 13.071 18.2299 13.6579 19.2356C13.7092 19.3239 13.6908 19.3637 13.6146 19.4168C12.4814 20.2186 11.1704 20.7333 9.79437 20.9167C9.43072 20.9636 9.06483 20.9912 8.69826 20.9992Z" fill="#EF492D"/>
<path d="M14.6645 18.4991C14.6172 18.4738 14.6039 18.4218 14.5797 18.3797C13.9235 17.2452 13.2697 16.1094 12.6182 14.9725C12.596 14.926 12.5599 14.8875 12.5148 14.8624C12.4697 14.8374 12.4179 14.8271 12.3667 14.8329C11.064 14.837 9.76193 14.8329 8.45928 14.8329H8.29717C8.29601 14.7829 8.3142 14.7343 8.34794 14.6973C9.00946 13.5482 9.67136 12.399 10.3336 11.2498C10.3512 11.2118 10.3803 11.1802 10.4167 11.1595C10.4531 11.1388 10.4951 11.13 10.5367 11.1344C11.8701 11.1378 13.2032 11.1378 14.5358 11.1344C14.5772 11.1301 14.619 11.1389 14.6551 11.1596C14.6912 11.1803 14.7199 11.2118 14.7372 11.2498C15.4021 12.4086 16.0702 13.5658 16.7413 14.7216C16.7637 14.7512 16.7763 14.7871 16.7774 14.8242C16.7784 14.8613 16.7678 14.8979 16.7471 14.9287C16.0729 16.0929 15.4012 17.2559 14.732 18.4178C14.7141 18.4472 14.706 18.4876 14.6645 18.4991Z" fill="#EF492D"/>
<path d="M11.8578 6.29687C11.6189 6.05804 11.3962 5.82958 11.1655 5.60459C11.0939 5.53536 11.1441 5.48402 11.1747 5.43152C11.4388 4.97171 11.8687 4.63032 12.3764 4.47732C12.684 4.37579 13.0095 4.33977 13.3319 4.37156C13.6544 4.40335 13.9665 4.50226 14.2484 4.66193C15.2869 5.22325 15.194 6.52533 14.5946 7.11377C14.3673 7.33259 14.1099 7.51774 13.8302 7.66356C13.5417 7.81702 13.2533 7.96182 12.9706 8.12508C12.7358 8.2595 12.5529 8.44526 12.4681 8.7141C12.4335 8.82256 12.4543 8.85083 12.5702 8.84967C13.3329 8.84506 14.0961 8.84967 14.8594 8.84506C14.9748 8.84506 15.018 8.86698 15.0134 8.99275C15.003 9.26216 15.0071 9.53215 15.0134 9.80041C15.0134 9.88579 14.9898 9.91579 14.9021 9.91579C13.6756 9.91349 12.4495 9.91349 11.2237 9.91579C11.166 9.91579 11.1124 9.91579 11.1118 9.83214C11.1118 8.98294 11.2687 8.192 11.9333 7.58625C12.2499 7.30591 12.6053 7.07275 12.9885 6.89397C13.1985 6.79128 13.4108 6.69321 13.5942 6.54436C13.7546 6.41398 13.8654 6.25591 13.8769 6.04246C13.8942 5.70843 13.63 5.46036 13.2308 5.4344C12.6568 5.39344 12.2425 5.65189 11.9529 6.13188C11.9241 6.17918 11.8976 6.22764 11.8578 6.29687Z" fill="#EF492D"/>
<path d="M14.785 19.7068V19.4293H14.6858V19.3716H14.9517V19.4293H14.8514V19.7068H14.785ZM14.9944 19.7068V19.3727H15.0954L15.1531 19.6006L15.2108 19.3727H15.3123V19.7068H15.2552V19.4437L15.1889 19.7068H15.1237L15.0579 19.4437V19.7068H14.9944Z" fill="#EF492D"/>
<path d="M31.8253 10.0696C31.7424 9.80114 31.6281 9.56084 31.4822 9.34872C31.3397 9.13329 31.1674 8.94934 30.9652 8.79688C30.7663 8.64441 30.5376 8.53007 30.2791 8.45383C30.0206 8.37429 29.7389 8.33452 29.4339 8.33452C28.8871 8.33452 28.3999 8.47206 27.9723 8.74716C27.5447 9.02225 27.2083 9.42661 26.9631 9.96023C26.7211 10.4905 26.6001 11.1368 26.6001 11.8991C26.6001 12.6681 26.7211 13.3194 26.9631 13.853C27.205 14.3866 27.5414 14.7926 27.9723 15.071C28.4032 15.3461 28.9036 15.4837 29.4737 15.4837C29.9908 15.4837 30.4382 15.3842 30.8161 15.1854C31.1972 14.9865 31.4905 14.7048 31.696 14.3402C31.9015 13.9723 32.0043 13.5414 32.0043 13.0476L32.4219 13.1122H29.6577V11.6705H33.7891V12.8935C33.7891 13.7652 33.6035 14.5192 33.2322 15.1555C32.861 15.7919 32.3506 16.2824 31.701 16.6271C31.0514 16.9685 30.3056 17.1392 29.4638 17.1392C28.5258 17.1392 27.7022 16.9287 26.9929 16.5078C26.2869 16.0836 25.7351 15.482 25.3374 14.7031C24.9429 13.9209 24.7457 12.9929 24.7457 11.919C24.7457 11.0971 24.8617 10.3629 25.0938 9.71662C25.3291 9.07031 25.6572 8.52178 26.0781 8.07102C26.4991 7.61695 26.9929 7.27225 27.5597 7.03693C28.1264 6.7983 28.7429 6.67898 29.4091 6.67898C29.9725 6.67898 30.4979 6.76184 30.9851 6.92756C31.4723 7.08996 31.9048 7.32197 32.2827 7.62358C32.6638 7.92519 32.977 8.28314 33.2223 8.69744C33.4676 9.11174 33.6283 9.56913 33.7045 10.0696H31.8253ZM35.4732 17V15.6676L39.008 12.2024C39.3461 11.861 39.6278 11.5578 39.8532 11.2926C40.0785 11.0275 40.2476 10.7706 40.3603 10.522C40.473 10.2734 40.5293 10.0083 40.5293 9.72656C40.5293 9.40507 40.4564 9.12997 40.3105 8.90128C40.1647 8.66927 39.9642 8.49029 39.709 8.36435C39.4538 8.2384 39.1638 8.17543 38.839 8.17543C38.5042 8.17543 38.2109 8.24503 37.959 8.38423C37.7071 8.52012 37.5115 8.71401 37.3723 8.96591C37.2364 9.2178 37.1685 9.51776 37.1685 9.86577H35.4135C35.4135 9.21946 35.561 8.65767 35.856 8.1804C36.151 7.70312 36.557 7.33357 37.074 7.07173C37.5944 6.8099 38.191 6.67898 38.8638 6.67898C39.5466 6.67898 40.1465 6.80658 40.6635 7.06179C41.1806 7.317 41.5816 7.66667 41.8667 8.1108C42.155 8.55492 42.2992 9.06203 42.2992 9.6321C42.2992 10.0133 42.2263 10.3878 42.0804 10.7557C41.9346 11.1236 41.6777 11.5312 41.3098 11.9787C40.9453 12.4261 40.4332 12.968 39.7736 13.6044L38.0186 15.3892V15.4588H42.4533V17H35.4732Z" fill="white"/>
<path d="M5.49542 36.8933L1.24209 37.5099L1.16675 37.5253C1.05271 37.5556 0.948751 37.6156 0.865483 37.6991C0.782214 37.7827 0.722624 37.8869 0.692796 38.0011C0.662969 38.1153 0.663973 38.2353 0.695706 38.3489C0.72744 38.4626 0.788766 38.5658 0.873421 38.6479L3.95475 41.6473L3.22809 45.8839L3.21942 45.9573C3.21244 46.0752 3.23693 46.1929 3.29039 46.2983C3.34384 46.4037 3.42434 46.4929 3.52365 46.557C3.62295 46.621 3.73748 46.6575 3.85552 46.6627C3.97356 46.6679 4.09086 46.6416 4.19542 46.5866L7.99942 44.5866L11.7948 46.5866L11.8614 46.6173C11.9715 46.6606 12.0911 46.6739 12.2079 46.6558C12.3248 46.6377 12.4347 46.5888 12.5265 46.5141C12.6182 46.4395 12.6885 46.3418 12.73 46.231C12.7715 46.1203 12.7828 46.0005 12.7628 45.8839L12.0354 41.6473L15.1181 38.6473L15.1701 38.5906C15.2444 38.4991 15.2931 38.3896 15.3112 38.2731C15.3294 38.1567 15.3164 38.0375 15.2735 37.9278C15.2306 37.818 15.1594 37.7216 15.0671 37.6483C14.9748 37.575 14.8647 37.5275 14.7481 37.5106L10.4948 36.8933L8.59342 33.0399C8.53841 32.9283 8.45323 32.8343 8.34755 32.7686C8.24186 32.7028 8.11989 32.668 7.99542 32.668C7.87096 32.668 7.74898 32.7028 7.6433 32.7686C7.53761 32.8343 7.45244 32.9283 7.39742 33.0399L5.49542 36.8933Z" fill="#EF492D"/>
<path d="M25.4954 36.8933L21.2421 37.5099L21.1668 37.5253C21.0527 37.5556 20.9488 37.6156 20.8655 37.6991C20.7822 37.7827 20.7226 37.8869 20.6928 38.0011C20.663 38.1153 20.664 38.2353 20.6957 38.3489C20.7274 38.4626 20.7888 38.5658 20.8734 38.6479L23.9548 41.6473L23.2281 45.8839L23.2194 45.9573C23.2124 46.0752 23.2369 46.1929 23.2904 46.2983C23.3438 46.4037 23.4243 46.4929 23.5236 46.557C23.6229 46.621 23.7375 46.6575 23.8555 46.6627C23.9736 46.6679 24.0909 46.6416 24.1954 46.5866L27.9994 44.5866L31.7948 46.5866L31.8614 46.6173C31.9715 46.6606 32.0911 46.6739 32.2079 46.6558C32.3248 46.6377 32.4347 46.5888 32.5265 46.5141C32.6182 46.4395 32.6885 46.3418 32.73 46.231C32.7715 46.1203 32.7828 46.0005 32.7628 45.8839L32.0354 41.6473L35.1181 38.6473L35.1701 38.5906C35.2444 38.4991 35.2931 38.3896 35.3112 38.2731C35.3294 38.1567 35.3164 38.0375 35.2735 37.9278C35.2306 37.818 35.1594 37.7216 35.0671 37.6483C34.9748 37.575 34.8647 37.5275 34.7481 37.5106L30.4948 36.8933L28.5934 33.0399C28.5384 32.9283 28.4532 32.8343 28.3475 32.7686C28.2419 32.7028 28.1199 32.668 27.9954 32.668C27.871 32.668 27.749 32.7028 27.6433 32.7686C27.5376 32.8343 27.4524 32.9283 27.3974 33.0399L25.4954 36.8933Z" fill="#EF492D"/>
<path d="M45.4954 36.8933L41.2421 37.5099L41.1668 37.5253C41.0527 37.5556 40.9488 37.6156 40.8655 37.6991C40.7822 37.7827 40.7226 37.8869 40.6928 38.0011C40.663 38.1153 40.664 38.2353 40.6957 38.3489C40.7274 38.4626 40.7888 38.5658 40.8734 38.6479L43.9548 41.6473L43.2281 45.8839L43.2194 45.9573C43.2124 46.0752 43.2369 46.1929 43.2904 46.2983C43.3438 46.4037 43.4243 46.4929 43.5236 46.557C43.6229 46.621 43.7375 46.6575 43.8555 46.6627C43.9736 46.6679 44.0909 46.6416 44.1954 46.5866L47.9994 44.5866L51.7948 46.5866L51.8614 46.6173C51.9715 46.6606 52.0911 46.6739 52.2079 46.6558C52.3248 46.6377 52.4347 46.5888 52.5265 46.5141C52.6182 46.4395 52.6885 46.3418 52.73 46.231C52.7715 46.1203 52.7828 46.0005 52.7628 45.8839L52.0354 41.6473L55.1181 38.6473L55.1701 38.5906C55.2444 38.4991 55.2931 38.3896 55.3112 38.2731C55.3294 38.1567 55.3164 38.0375 55.2735 37.9278C55.2306 37.818 55.1594 37.7216 55.0671 37.6483C54.9748 37.575 54.8647 37.5275 54.7481 37.5106L50.4948 36.8933L48.5934 33.0399C48.5384 32.9283 48.4532 32.8343 48.3475 32.7686C48.2419 32.7028 48.1199 32.668 47.9954 32.668C47.871 32.668 47.749 32.7028 47.6433 32.7686C47.5376 32.8343 47.4524 32.9283 47.3974 33.0399L45.4954 36.8933Z" fill="#EF492D"/>
<path d="M65.4954 36.8933L61.2421 37.5099L61.1668 37.5253C61.0527 37.5556 60.9488 37.6156 60.8655 37.6991C60.7822 37.7827 60.7226 37.8869 60.6928 38.0011C60.663 38.1153 60.664 38.2353 60.6957 38.3489C60.7274 38.4626 60.7888 38.5658 60.8734 38.6479L63.9548 41.6473L63.2281 45.8839L63.2194 45.9573C63.2124 46.0752 63.2369 46.1929 63.2904 46.2983C63.3438 46.4037 63.4243 46.4929 63.5236 46.557C63.6229 46.621 63.7375 46.6575 63.8555 46.6627C63.9736 46.6679 64.0909 46.6416 64.1954 46.5866L67.9994 44.5866L71.7948 46.5866L71.8614 46.6173C71.9715 46.6606 72.0911 46.6739 72.2079 46.6558C72.3248 46.6377 72.4347 46.5888 72.5265 46.5141C72.6182 46.4395 72.6885 46.3418 72.73 46.231C72.7715 46.1203 72.7828 46.0005 72.7628 45.8839L72.0354 41.6473L75.1181 38.6473L75.1701 38.5906C75.2444 38.4991 75.2931 38.3896 75.3112 38.2731C75.3294 38.1567 75.3164 38.0375 75.2735 37.9278C75.2306 37.818 75.1594 37.7216 75.0671 37.6483C74.9748 37.575 74.8647 37.5275 74.7481 37.5106L70.4948 36.8933L68.5934 33.0399C68.5384 32.9283 68.4532 32.8343 68.3475 32.7686C68.2419 32.7028 68.1199 32.668 67.9954 32.668C67.871 32.668 67.749 32.7028 67.6433 32.7686C67.5376 32.8343 67.4524 32.9283 67.3974 33.0399L65.4954 36.8933Z" fill="#EF492D"/>
<path d="M85.4954 36.8933L81.2421 37.5099L81.1668 37.5253C81.0527 37.5556 80.9488 37.6156 80.8655 37.6991C80.7822 37.7827 80.7226 37.8869 80.6928 38.0011C80.663 38.1153 80.664 38.2353 80.6957 38.3489C80.7274 38.4626 80.7888 38.5658 80.8734 38.6479L83.9548 41.6473L83.2281 45.8839L83.2194 45.9573C83.2124 46.0752 83.2369 46.1929 83.2904 46.2983C83.3438 46.4037 83.4243 46.4929 83.5236 46.557C83.6229 46.621 83.7375 46.6575 83.8555 46.6627C83.9736 46.6679 84.0909 46.6416 84.1954 46.5866L87.9994 44.5866L91.7948 46.5866L91.8614 46.6173C91.9715 46.6606 92.0911 46.6739 92.2079 46.6558C92.3248 46.6377 92.4347 46.5888 92.5265 46.5141C92.6182 46.4395 92.6885 46.3418 92.73 46.231C92.7715 46.1203 92.7828 46.0005 92.7628 45.8839L92.0354 41.6473L95.1181 38.6473L95.1701 38.5906C95.2444 38.4991 95.2931 38.3896 95.3112 38.2731C95.3294 38.1567 95.3164 38.0375 95.2735 37.9278C95.2306 37.818 95.1594 37.7216 95.0671 37.6483C94.9748 37.575 94.8647 37.5275 94.7481 37.5106L90.4948 36.8933L88.5934 33.0399C88.5384 32.9283 88.4532 32.8343 88.3475 32.7686C88.2419 32.7028 88.1199 32.668 87.9954 32.668C87.871 32.668 87.749 32.7028 87.6433 32.7686C87.5376 32.8343 87.4524 32.9283 87.3974 33.0399L85.4954 36.8933Z" fill="#EF492D"/>
</svg>
